HIERARCHY
ROOT Hips
{
	OFFSET 0.000000 88.474243 0.000000
	CHANNELS 6 Xposition Yposition Zposition Zrotation Yrotation Xrotation 
	JOINT Hips_Spine
	{
		OFFSET 0.000000 0.000000 0.000000
		CHANNELS 3 Zrotation Yrotation Xrotation
		JOINT Spine
		{
			OFFSET 0.005100 8.711998 -0.691000
			CHANNELS 3 Zrotation Yrotation Xrotation
			JOINT Spine1
			{
				OFFSET -0.009200 8.660301 -1.275000
				CHANNELS 3 Zrotation Yrotation Xrotation
				JOINT Spine2
				{
					OFFSET 0.006300 9.852501 -1.857000
					CHANNELS 3 Zrotation Yrotation Xrotation
					JOINT Spine2_Neck
					{
						OFFSET 0.000000 0.000000 0.000000
						CHANNELS 3 Zrotation Yrotation Xrotation
						JOINT Neck
						{
							OFFSET 0.016300 11.420799 -0.263300
							CHANNELS 3 Zrotation Yrotation Xrotation
							End Site #name: Head
							{
								OFFSET -0.019200 9.262405 2.362500
							}
						}
					}
					JOINT Spine2_LeftShoulder
					{
						OFFSET 0.000000 0.000000 0.000000
						CHANNELS 3 Zrotation Yrotation Xrotation
						JOINT LeftShoulder
						{
							OFFSET 5.616900 6.732201 -0.345700
							CHANNELS 3 Zrotation Yrotation Xrotation
							JOINT LeftArm
							{
								OFFSET 10.664888 -0.183372 -2.440700
								CHANNELS 3 Zrotation Yrotation Xrotation
								JOINT LeftForeArm
								{
									OFFSET 27.459126 0.000000 0.000000
									CHANNELS 3 Zrotation Yrotation Xrotation
									End Site #name: LeftHand
									{
										OFFSET 21.306858 0.000000 0.000000
									}
								}
							}
						}
					}
					JOINT Spine2_RightShoulder
					{
						OFFSET 0.000000 0.000000 0.000000
						CHANNELS 3 Zrotation Yrotation Xrotation
						JOINT RightShoulder
						{
							OFFSET -5.580300 6.737503 -0.344400
							CHANNELS 3 Zrotation Yrotation Xrotation
							JOINT RightArm
							{
								OFFSET -10.679335 -0.188484 -2.383900
								CHANNELS 3 Zrotation Yrotation Xrotation
								JOINT RightForeArm
								{
									OFFSET -27.503529 0.000000 0.000000
									CHANNELS 3 Zrotation Yrotation Xrotation
									End Site #name: RightHand
									{
										OFFSET -21.306808 0.000000 0.000000
									}
								}
							}
						}
					}
				}
			}
		}
	}
	JOINT Hips_LeftUpLeg
	{
		OFFSET 0.000000 0.000000 0.000000
		CHANNELS 3 Zrotation Yrotation Xrotation
		JOINT LeftUpLeg
		{
			OFFSET 6.857700 -6.739601 0.312100
			CHANNELS 3 Zrotation Yrotation Xrotation
			JOINT LeftLeg
			{
				OFFSET -0.367590 -34.731552 -4.572400
				CHANNELS 3 Zrotation Yrotation Xrotation
				End Site #name: LeftFoot
				{
					OFFSET 0.367590 -34.656704 -6.067400
				}
			}
		}
	}
	JOINT Hips_RightUpLeg
	{
		OFFSET 0.000000 0.000000 0.000000
		CHANNELS 3 Zrotation Yrotation Xrotation
		JOINT RightUpLeg
		{
			OFFSET -6.876100 -6.733299 0.301000
			CHANNELS 3 Zrotation Yrotation Xrotation
			JOINT RightLeg
			{
				OFFSET 0.347353 -34.795158 -4.515900
				CHANNELS 3 Zrotation Yrotation Xrotation
				End Site #name: RightFoot
				{
					OFFSET -0.347353 -34.589367 -6.070300
				}
			}
		}
	}
}
MOTION
Frames: 6
Frame Time: 0.041667
0.132000 -0.168143 -0.281170 0.607875 0.800726 -1.157096 -0.000000 0.000000 0.000000 0.097677 0.710447 2.092790 0.369754 1.845293 2.830913 0.000000 0.000000 0.000000 0.192313 2.010064 3.024043 -0.637141 -1.927645 7.181571 0.326984 1.734147 2.677097 -7.323959 -13.526637 2.899599 -14.548843 -10.671043 1.143687 1.394272 -58.305787 42.353036 0.312431 1.831805 3.019117 5.697663 14.016115 2.740810 18.560438 32.826871 -11.567623 -5.856933 60.463182 15.385490 0.000000 0.000000 0.000000 -0.465191 1.107367 -15.197164 -1.175415 -2.015915 18.088631 -0.000000 0.000000 0.000000 1.174428 -7.687965 -14.293506 -0.711299 -2.270672 18.654436 
0.126176 -0.176254 -0.289191 0.623143 0.809681 -1.161692 -0.000000 0.000000 0.000000 0.087966 0.757168 2.097830 0.355847 1.913749 2.790279 0.000000 0.000000 0.000000 0.180433 2.071332 3.016601 -0.609519 -1.910304 7.234542 0.310512 1.799676 2.650207 -7.143389 -13.360109 2.838729 -14.190504 -10.078565 1.563988 1.580614 -59.495026 42.687553 0.299434 1.899729 3.010613 5.680328 13.967670 2.744607 18.561378 32.577401 -11.428903 -6.264228 63.030359 14.919984 0.000000 0.000000 0.000000 -0.473118 1.092181 -15.191469 -1.176283 -2.011491 18.088940 -0.000000 0.000000 0.000000 1.164619 -7.697329 -14.292259 -0.712094 -2.273756 18.666946 
0.120048 -0.184422 -0.297148 0.638815 0.818770 -1.167274 -0.000000 0.000000 0.000000 0.078157 0.804196 2.100282 0.341352 1.983125 2.749325 0.000000 0.000000 0.000000 0.172003 2.131420 3.014119 -0.582587 -1.892945 7.285345 0.293378 1.864161 2.622753 -6.969882 -13.194010 2.778659 -13.822958 -9.500663 2.023800 1.907967 -60.797057 42.865805 0.285953 1.966820 3.002820 5.653366 13.922173 2.745891 18.549354 32.289761 -11.278012 -6.795305 65.535424 14.332174 0.000000 0.000000 0.000000 -0.480666 1.079600 -15.187036 -1.177075 -2.006847 18.092491 -0.000000 0.000000 0.000000 1.155265 -7.705993 -14.287102 -0.712938 -2.278189 18.674206 
0.113699 -0.192612 -0.304946 0.654609 0.827836 -1.172676 -0.000000 0.000000 0.000000 0.068532 0.847775 2.104620 0.326220 2.050033 2.709451 0.000000 0.000000 0.000000 0.163353 2.189797 3.012474 -0.552961 -1.873079 7.339646 0.276909 1.928845 2.596731 -6.817129 -13.029553 2.719834 -13.438397 -9.015331 2.468353 2.397540 -62.213260 42.905417 0.271638 2.031685 2.996595 5.617430 13.880295 2.745529 18.510293 32.027028 -11.156028 -7.427333 67.956962 13.676510 0.000000 0.000000 0.000000 -0.487330 1.064973 -15.177146 -1.177606 -2.002343 18.090036 -0.000000 0.000000 0.000000 1.144818 -7.712413 -14.279393 -0.714435 -2.281240 18.679443 
0.107350 -0.200759 -0.312610 0.670969 0.836280 -1.178638 -0.000000 0.000000 0.000000 0.062096 0.889224 2.105326 0.310713 2.111554 2.671510 0.000000 0.000000 0.000000 0.154960 2.242838 3.010441 -0.516783 -1.852971 7.395609 0.260177 1.986227 2.573317 -6.674455 -12.873253 2.664880 -13.053875 -8.595074 2.890007 2.892361 -63.626652 42.897721 0.257073 2.093363 2.990818 5.564118 13.842855 2.742614 18.428795 31.791842 -11.062888 -8.160985 70.244249 12.949814 0.000000 0.000000 0.000000 -0.494498 1.054704 -15.167324 -1.178895 -1.999924 18.084480 -0.000000 0.000000 0.000000 1.134065 -7.719578 -14.274924 -0.717713 -2.285678 18.687573 
0.101069 -0.208941 -0.320134 0.687051 0.845903 -1.184249 -0.000000 0.000000 0.000000 0.051395 0.925705 2.102806 0.295311 2.169782 2.631904 0.000000 0.000000 0.000000 0.146153 2.292240 3.005977 -0.482474 -1.836485 7.454820 0.245910 2.038275 2.550894 -6.524109 -12.733936 2.609750 -12.691203 -8.226286 3.247365 3.389745 -64.877167 42.826849 0.243499 2.151049 2.984015 5.508404 13.807325 2.740077 18.302624 31.583777 -11.003935 -9.006247 72.400136 12.134217 0.000000 0.000000 0.000000 -0.499984 1.044452 -15.151764 -1.180085 -1.997214 18.070537 -0.000000 0.000000 0.000000 1.123136 -7.726300 -14.269687 -0.719355 -2.290378 18.694740 
